<?xml version="1.0" encoding="utf-8"?>
<svg viewBox="0 0 500 100" xmlns="http://www.w3.org/2000/svg">
  <rect x="10" y="89" width="80" height="10" style="fill: rgb(216, 216, 216);"/>
  <rect x="110" y="89" width="80" height="10" style="fill: rgb(216, 216, 216);"/>
  <rect x="210" y="89" width="80" height="10" style="fill: rgb(216, 216, 216);"/>
  <rect x="310" y="89" width="80" height="10" style="fill: rgb(216, 216, 216);"/>
  <rect x="410" y="89" width="80" height="10" style="fill: rgb(216, 216, 216);"/>
  <g style="" transform="matrix(0.829529, -0.085909, 0.085909, 0.829529, 78.401123, 44.879551)">
    <path style="fill: rgb(216, 216, 216); stroke: rgb(0, 0, 0); stroke-width: 4.79636px;" d="M 409.997 31.712 L 489.997 31.712 L 449.997 61.712 L 489.997 91.712 L 409.997 91.712 L 369.997 61.712 L 409.997 31.712 Z" transform="matrix(0.797792, -0.602933, 0.602933, 0.797792, 49.740663, 271.737974)"/>
    <path style="fill: rgb(255, 242, 0);" d="M 400.953 34.745 L 480.953 34.745 L 440.953 64.745 L 360.953 64.745 L 400.953 34.745 Z" transform="matrix(0.797792, -0.602933, 0.602933, 0.797792, 55.127189, 263.865223)"/>
    <path style="fill: rgb(28, 179, 5);" d="M 379.041 58.679 L 459.041 58.679 L 499.041 88.679 L 419.041 88.679 L 379.041 58.679 Z" transform="matrix(0.797792, -0.602933, 0.602933, 0.797792, 44.35413, 279.610708)"/>
  </g>
</svg>