<svg height="512pt" viewBox="0 0 512 512" width="512pt" xmlns="http://www.w3.org/2000/svg"><path d="m241 91v30h-30v30h30v30h30v-30h30v-30h-30v-30zm0 0"/><path d="m91 301h30v30h-30zm0 0"/><path d="m31 241h30v30h-30zm0 0"/><path d="m391 301h30v30h-30zm0 0"/><path d="m451 241h30v30h-30zm0 0"/><path d="m512 30v-30h-512v30h30v39.523438c-4.445312 2.496093-8.699219 5.367187-12.40625 9.070312-23.378906 23.378906-23.378906 61.417969 0 84.8125l64.707031 63.707031 84.8125-84.816406-64.722656-63.71875c-11.351563-11.339844-26.867187-17.011719-42.390625-17.011719v-31.566406h392v31.566406c-15.519531 0-31.039062 5.675782-42.40625 17.027344l-64.707031 63.707031 84.8125 84.8125 64.707031-63.707031c23.378906-23.394531 23.378906-61.433594-.015625-84.828125-3.699219-3.695313-7.949219-6.566406-12.390625-9.058594v-39.519531zm0 0"/><path d="m116.515625 235.316406 51.902344 74.632813 66.371093-66.371094-63.265624-63.265625zm0 0"/><path d="m274.289062 462.242188 33.859376 49.757812h194.0625l-154.449219-155.449219zm0 0"/><path d="m340.476562 180.3125-330.6875 331.6875h194.0625l191.640626-276.671875zm0 0"/></svg>