<?xml version="1.0" encoding="utf-8"?>
<!-- Generator: Adobe Illustrator 15.1.0, SVG Export Plug-In . SVG Version: 6.00 Build 0)  -->
<!DOCTYPE svg PUBLIC "-//W3C//DTD SVG 1.0//EN" "http://www.w3.org/TR/2001/REC-SVG-20010904/DTD/svg10.dtd">
<svg version="1.0" id="レイヤー_1" xmlns="http://www.w3.org/2000/svg" xmlns:xlink="http://www.w3.org/1999/xlink" x="0px"
	 y="-20px" width="275px" height="275px" viewBox="0 -20 275 275" enable-background="new 0 -20 275 275"
	 xml:space="preserve">
<path fill="#0072BA" d="M247.736,164.476l-1.925-0.432c6.543-4.525,10.696-8.158,11.246-8.634l1.17-1.062l-0.222-1.558
	c-0.02-0.109-0.307-1.958-1.11-4.981c7.697,1.715,15.092,3.362,19.145,4.258C269.596,155.652,258.961,161.037,247.736,164.476z
	 M267.623,174.902c-11.483,6.39-36.235,18.491-54.044,15.097c-6.087-1.154-10.434-3.358-13.01-6.523
	c10.568-1.538,20.663-5.441,29.333-9.873c5.909-0.153,12.093-1.348,18.075-3.076C255.857,172.274,263.477,173.982,267.623,174.902
	 M175.535,175.697c-9.344-3.318-12.331-11.338-15.492-19.843c-4.113-11.116-8.804-23.706-28.578-24.812
	c-8.755-0.48-14.972,0.638-19.5,2.769c-8.541-0.545-17.51-2.188-27.989-11.629c-5.244-4.707-9.95-10.023-14.148-15.165
	c16.162-17.349,41.757-32.276,81.747-30.197c82.724,4.295,98.236,64.467,100.343,75.248
	C244.846,157.909,207.419,187.008,175.535,175.697 M132.236,186.717c-14.931,1.025-29.28-3.338-40.546-8.44
	c2.612-1.639,4.63-3.572,6.22-5.699c6.095,3.226,12.335,5.494,18.544,6.374c17.502,2.507,30.54-1.688,34.899-11.213
	c3.58-7.847,0.323-17.494-8.521-25.151c-2.757-2.402-5.526-4.093-8.275-5.312c13.038,1.978,16.295,10.672,19.98,20.622
	c2.858,7.673,6.055,16.215,14.43,21.167C156.733,182.817,143.708,185.922,132.236,186.717 M64.209,187.718
	c-16.453,5.765-32.72-6.051-39.896-12.371c3.867-0.836,13.583-2.947,23.286-5.062c0.307,0.097,0.61,0.206,0.937,0.303
	c5.603,6.075,13.546,11.815,23.815,12.464C70.45,184.917,67.741,186.479,64.209,187.718 M39.191,150.328
	c-0.618,2.111-0.908,3.379-0.937,3.472l-0.182,0.908l0.367,0.859c0.041,0.093,1.058,2.398,3.043,5.659
	c-5.191-2.809-9.506-6.188-12.376-8.719C31.143,152.072,34.795,151.285,39.191,150.328 M92.788,169.623
	c-2.087,2.547-4.997,4.61-9.3,6.059c-23.888,7.96-36.938-16.671-39.267-21.579c0.743-3.104,3.476-13.159,9.877-25.022
	C63.305,144.338,77.328,159.923,92.788,169.623 M48.758,94.887c0-2.119,0.113-3.447,0.25-4.279
	c2.063,1.857,5.643,6.499,8.646,10.406c5.954,7.754,13.353,17.414,22.402,25.535c13.768,12.4,25.494,12.884,35.836,13.32
	c8.375,0.351,15.593,0.65,23.092,7.149c5.13,4.456,7.908,9.522,7.908,14.071c0,1.481-0.283,2.895-0.896,4.206
	c-2.471,5.441-11.314,10.35-28.72,7.847c-31.662-4.509-67.264-51.489-68.406-74.174C48.79,97.362,48.758,96.018,48.758,94.887
	 M243.909,40.375c1.994,0.101,3.661,0.662,4.997,1.829c3.488,3.076,4.384,9.421,4.509,13.752c-1.445-0.25-4.012-0.714-7.023-1.243
	C247.623,48.718,245.903,43.773,243.909,40.375 M240.091,40.693c0.02-0.012,0.036-0.012,0.052-0.012
	c1.954,2.801,4.17,7.524,2.938,13.429c-6.938-1.231-14.878-2.652-17.313-3.08C226.431,48.157,229.127,43.071,240.091,40.693
	 M177.703,42.425c21.502-19.113,52.535-23.662,72.16-10.567c2.539,1.691,4.61,3.746,6.309,6.014
	c-1.263,0.182-2.394,0.133-3.286,0.016c-0.028-0.028-0.064-0.057-0.093-0.093c-3.552-3.128-8.247-4.077-13.946-2.838
	c-20.84,4.533-19.121,18.742-19.113,18.891l0.287,2.107l38.907,6.955l0.294-3.185c0.053-0.533,0.889-11.112-3.58-18.438
	c0.815-0.061,1.643-0.202,2.515-0.424c4.088,7.165,5.198,15.867,5.198,23.181c0,5.377-0.602,9.962-1.029,12.654
	c-4.58-0.452-38.377-3.826-38.377-3.826s5.179,11.831,7.673,17.534c-5.667-1.861-14.289-4.109-23.004-4.392
	c-14.43-8.012-32.954-13.845-56.737-15.076c-0.012,0-0.032,0-0.052,0C158.893,61.72,167.866,51.176,177.703,42.425 M291.445,149.477
	l-36.524-8.113c-4.287-12.388-14.015-32.405-34.956-48.01c8.84,1.881,15.823,4.812,15.948,4.868l6.805,2.918
	c0,0-7.036-16.102-9.364-21.434c7.431,0.751,33.626,3.358,33.626,3.358l0.578-2.511c0.307-1.243,5.639-25.01-4.09-42.326
	c3.471-2.721,6.055-7.129,7.674-13.2c0.234-0.896-0.287-1.804-1.191-2.054c-0.896-0.238-1.813,0.294-2.055,1.19
	c-1.375,5.171-3.471,8.913-6.221,11.193c-2.207-3.161-5.003-6.031-8.555-8.388c-21.773-14.523-55.873-9.76-79.317,11.064
	c-11.508,10.232-21.684,22.572-29.232,32.724c-37.281-0.057-62.02,14.793-78.182,31.953c-1.425-1.816-2.79-3.588-4.073-5.251
	c-7.561-9.873-11.359-14.793-15.613-13.24c-3.653,1.344-4.121,6.535-3.685,15.048c0.339,6.83,3.217,15.314,7.899,24.194
	c-4.541,7.758-7.617,14.947-9.599,20.384l-23.803,5.179l3.407,3.766c0.529,0.581,7.358,7.968,17.458,13.49l-25.656,5.575l3.395,3.75
	c0.989,1.103,24.437,26.608,50.028,17.644c6.838-2.394,11.415-5.954,13.696-10.612c0.783-0.133,1.578-0.307,2.381-0.492
	c12.771,6.652,30.992,13.45,50.517,12.109c15.334-1.058,32.901-5.877,48.054-11.06c4.404,0.859,8.824,1.102,13.224,0.904
	c0.048,0.112,0.081,0.229,0.141,0.339c3.152,5.805,9.292,9.619,18.31,11.326c26.116,4.985,63.089-18.632,64.648-19.646l5.912-3.806
	l-24.403-5.421c14.534-5.708,26.063-13.058,26.923-13.603L291.445,149.477"/>
</svg>
